<svg width="22" height="21" viewBox="0 0 22 21" fill="none" xmlns="http://www.w3.org/2000/svg">
<g clip-path="url(#clip0)">
<path d="M21.111 16.6092C21.111 17.0695 20.9237 17.5108 20.5903 17.8362C20.2569 18.1617 19.8048 18.3445 19.3333 18.3445H3.33326C2.86176 18.3445 2.40958 18.1617 2.07618 17.8362C1.74278 17.5108 1.55548 17.0695 1.55548 16.6092V7.06538C1.55548 6.60517 1.74278 6.1638 2.07618 5.83838C2.40958 5.51296 2.86176 5.33014 3.33326 5.33014H6.88881L8.66659 2.72726H13.9999L15.7777 5.33014H19.3333C19.8048 5.33014 20.2569 5.51296 20.5903 5.83838C20.9237 6.1638 21.111 6.60517 21.111 7.06538V16.6092Z" stroke="#FC6600" stroke-width="2" stroke-linecap="round" stroke-linejoin="round"/>
<path d="M11.3333 14.874C13.2969 14.874 14.8888 13.3202 14.8888 11.4035C14.8888 9.48681 13.2969 7.93301 11.3333 7.93301C9.36959 7.93301 7.77771 9.48681 7.77771 11.4035C7.77771 13.3202 9.36959 14.874 11.3333 14.874Z" stroke="#FC6600" stroke-width="2" stroke-linecap="round" stroke-linejoin="round"/>
</g>
<defs>
<clipPath id="clip0">
<rect width="21.3333" height="20.823" fill="white" transform="translate(0.666626 0.12439)"/>
</clipPath>
</defs>
</svg>
