<svg width="32" height="32" viewBox="0 0 32 32" fill="none" xmlns="http://www.w3.org/2000/svg">
<g clip-path="url(#clip0)">
<path d="M31.0059 29.2639C31.5058 29.719 31.6779 30.8333 31.0322 31.4733C30.3908 32.1196 29.2744 31.9483 28.8214 31.4491C24.6309 26.9493 20.4426 22.4473 16.2521 17.9461L15.7757 17.4377C11.3925 22.1437 7.01071 26.8518 2.62894 31.56C2.1774 32.0585 1.06311 32.2306 0.421702 31.5842C-0.225395 30.9435 -0.054732 29.8264 0.444457 29.3734C5.16755 24.9802 9.88709 20.5857 14.6095 16.1904C14.6095 16.1904 12.324 13.725 11.3384 12.6669C9.03236 14.3202 5.61483 13.6916 3.56048 11.1551C1.3511 8.47927 -0.554632 3.6936 1.28995 1.73382C3.25186 -0.112186 8.03469 1.79782 10.7105 4.00506C13.2463 6.06155 13.8785 9.47409 12.2216 11.7816C13.4091 12.8881 14.5967 13.9917 15.7856 15.0974C15.7828 15.0996 15.7814 15.101 15.7785 15.1031C15.7785 15.1031 15.8525 15.1614 15.7856 15.0974C16.8964 14.0628 18.0078 13.0289 19.1192 11.9942C18.1806 10.3914 18.8042 8.14363 20.3288 6.86082C22.0774 5.39525 28.5562 -0.166941 28.7304 0.00941107C28.9039 0.182207 24.36 4.4758 21.3244 7.52071L21.8307 8.0263C25.0711 5.18619 29.6456 0.926724 29.8219 1.10023C29.9954 1.27445 25.5938 5.70813 22.6569 8.85473L23.1597 9.35605C26.3013 6.41709 30.7364 2.0147 30.9085 2.1875C31.0827 2.36243 26.8225 6.93761 23.9824 10.1781L24.4852 10.6801C27.5287 7.64444 31.8201 3.10054 31.9958 3.27263C32.1714 3.44756 25.1564 11.6671 25.1465 11.6792C25.1451 11.6778 26.6355 9.92848 25.1408 11.6749C23.7143 13.3439 21.5839 13.8488 20.0088 12.8874C18.9863 13.9846 17.9658 15.0818 16.9447 16.179C16.8551 16.0944 26.3198 24.9027 31.0059 29.2639Z" fill="#FC6600"/>
</g>
<defs>
<clipPath id="clip0">
<rect width="32" height="32" fill="white"/>
</clipPath>
</defs>
</svg>
