<svg width="32" height="32" viewBox="0 0 32 32" fill="none" xmlns="http://www.w3.org/2000/svg">
<g filter="url(#filter0_d)">
<path d="M4 24L5.65516 18C4.57933 16.1379 4 14.069 4 11.9172C4 5.37933 9.37933 0 15.9586 0C22.5379 0 28 5.37933 28 11.9172C28 18.4551 22.5379 24 15.9586 24C13.8896 24 11.9035 23.3379 10.1241 22.3448L4 24Z" fill="#EDEDED"/>
<path d="M10.4552 20.1931L10.8276 20.4C12.3586 21.3517 14.1379 21.931 16 21.931C21.4207 21.931 25.931 17.4207 25.931 11.9172C25.931 6.41377 21.4207 2.06897 15.9586 2.06897C10.4965 2.06897 6.06897 6.45516 6.06897 11.9172C6.06897 13.8207 6.60691 15.6827 7.6 17.2552L7.8483 17.6276L6.89659 21.1035L10.4552 20.1931Z" fill="#55CD6C"/>
<path d="M12.7724 6.37245L11.9862 6.33105C11.7379 6.33105 11.4896 6.41384 11.3241 6.57935C10.9517 6.91038 10.331 7.53105 10.1655 8.35868C9.87585 9.60007 10.331 11.0897 11.4069 12.5794C12.4828 14.069 14.5517 16.469 18.1931 17.5035C19.3517 17.8345 20.262 17.6276 21.0069 17.1724C21.5862 16.8 21.9586 16.2207 22.0828 15.6L22.2069 15.0207C22.2483 14.8552 22.1655 14.6483 22 14.5655L19.3931 13.3655C19.2276 13.2828 19.0206 13.3241 18.8965 13.4897L17.862 14.8138C17.7793 14.8966 17.6551 14.9379 17.531 14.8966C16.8276 14.6483 14.4689 13.6552 13.1862 11.1724C13.1448 11.0483 13.1448 10.9241 13.2276 10.8414L14.2206 9.7242C14.3034 9.60007 14.3448 9.43456 14.3034 9.31038L13.1034 6.62074C13.062 6.49657 12.9379 6.37245 12.7724 6.37245Z" fill="#FEFEFE"/>
</g>
<defs>
<filter id="filter0_d" x="0" y="0" width="32" height="32" filterUnits="userSpaceOnUse" color-interpolation-filters="sRGB">
<feFlood flood-opacity="0" result="BackgroundImageFix"/>
<feColorMatrix in="SourceAlpha" type="matrix" values="0 0 0 0 0 0 0 0 0 0 0 0 0 0 0 0 0 0 127 0"/>
<feOffset dy="4"/>
<feGaussianBlur stdDeviation="2"/>
<feColorMatrix type="matrix" values="0 0 0 0 0 0 0 0 0 0 0 0 0 0 0 0 0 0 0.25 0"/>
<feBlend mode="normal" in2="BackgroundImageFix" result="effect1_dropShadow"/>
<feBlend mode="normal" in="SourceGraphic" in2="effect1_dropShadow" result="shape"/>
</filter>
</defs>
</svg>
