<svg width="270" height="226" viewBox="0 0 270 226" fill="none" xmlns="http://www.w3.org/2000/svg">
<path d="M71.9134 137.393C71.1865 137.393 70.4521 137.381 69.7313 137.359L69.7477 136.837C70.7827 136.869 71.839 136.878 72.8788 136.864L72.886 137.386C72.5623 137.39 72.2381 137.393 71.9134 137.393ZM76.0389 137.271L76.0082 136.75C77.0447 136.689 78.0946 136.603 79.1286 136.496L79.1833 137.015C78.1414 137.124 77.0836 137.21 76.0389 137.271ZM66.5812 137.19C65.536 137.11 64.4798 137.006 63.4417 136.879L63.5056 136.36C64.5358 136.486 65.5839 136.59 66.6212 136.669L66.5812 137.19ZM82.3124 136.616L82.2338 136.099C83.2637 135.944 84.3016 135.763 85.3176 135.561L85.4197 136.074C84.3957 136.276 83.3502 136.459 82.3124 136.616ZM60.3201 136.425C59.2876 136.25 58.2453 136.05 57.2223 135.828L57.3334 135.318C58.3486 135.537 59.3829 135.736 60.4076 135.909L60.3201 136.425ZM88.4994 135.39L88.3736 134.883C89.3845 134.633 90.4011 134.358 91.3952 134.064L91.5441 134.565C90.5423 134.861 89.5181 135.139 88.4994 135.39ZM54.1555 135.09C53.1426 134.822 52.1233 134.526 51.1259 134.212L51.2838 133.714C52.2737 134.026 53.2851 134.319 54.2901 134.585L54.1555 135.09ZM94.5473 133.601L94.3753 133.108C95.3563 132.768 96.343 132.4 97.3084 132.015L97.5029 132.5C96.5303 132.888 95.536 133.259 94.5473 133.601H94.5473ZM48.1325 133.192C47.1487 132.832 46.1589 132.443 45.1907 132.036L45.3941 131.554C46.3549 131.958 47.3371 132.344 48.3134 132.702L48.1325 133.192ZM100.398 131.267L100.181 130.792C101.123 130.365 102.07 129.91 102.995 129.438L103.234 129.903C102.301 130.378 101.347 130.837 100.398 131.267H100.398ZM106.005 128.41L105.745 127.957C106.649 127.443 107.551 126.902 108.425 126.351L108.705 126.792C107.824 127.348 106.915 127.893 106.005 128.41H106.005ZM111.33 125.052L111.03 124.624C111.88 124.031 112.729 123.411 113.553 122.78L113.872 123.194C113.043 123.83 112.187 124.455 111.33 125.052ZM31.4606 124.316C30.6148 123.704 29.7699 123.062 28.9492 122.409L29.2762 122.001C30.0906 122.649 30.9291 123.286 31.7684 123.893L31.4606 124.316ZM116.328 121.222L115.99 120.823C116.783 120.156 117.572 119.46 118.336 118.756L118.692 119.14C117.922 119.849 117.127 120.55 116.328 121.222H116.328ZM26.5281 120.39C25.7404 119.702 24.9578 118.987 24.2022 118.264L24.565 117.887C25.315 118.605 26.0916 119.315 26.8733 119.997L26.5281 120.39ZM120.959 116.952L120.586 116.585C121.317 115.847 122.04 115.083 122.734 114.314L123.124 114.664C122.424 115.438 121.695 116.208 120.959 116.952ZM21.9763 116.035C21.2536 115.277 20.5399 114.494 19.8549 113.708L20.2507 113.365C20.9305 114.146 21.6387 114.923 22.3561 115.675L21.9763 116.035ZM125.182 112.279L124.778 111.947C125.438 111.146 126.088 110.319 126.711 109.49L127.13 109.802C126.503 110.639 125.848 111.472 125.182 112.279L125.182 112.279ZM17.8423 111.287C17.1933 110.47 16.5543 109.626 15.9428 108.778L16.3681 108.473C16.9749 109.314 17.6091 110.152 18.2532 110.963L17.8423 111.287ZM128.963 107.239L128.529 106.946C129.114 106.088 129.686 105.205 130.23 104.321L130.677 104.595C130.128 105.485 129.552 106.375 128.963 107.239L128.963 107.239ZM14.1607 106.187C13.5897 105.314 13.0309 104.416 12.4996 103.517L12.9509 103.252C13.4783 104.144 14.0329 105.035 14.5995 105.901L14.1607 106.187ZM132.268 101.874L131.81 101.622C132.313 100.714 132.801 99.782 133.263 98.8512L133.733 99.0828C133.268 100.021 132.775 100.96 132.268 101.874ZM135.067 96.2267L134.587 96.017C135.004 95.0663 135.405 94.0927 135.779 93.1234L136.268 93.3106C135.892 94.2876 135.487 95.2686 135.067 96.2267ZM8.27699 95.0995C7.87527 94.1384 7.49056 93.155 7.13362 92.1765L7.62618 91.998C7.98031 92.9691 8.36207 93.9447 8.7606 94.8985L8.27699 95.0995ZM137.333 90.3415L136.835 90.1772C137.162 89.1949 137.471 88.1909 137.752 87.1927L138.257 87.3341C137.973 88.3399 137.662 89.3518 137.333 90.3415ZM6.12419 89.1967C5.81241 88.2011 5.51944 87.1841 5.25345 86.1734L5.76034 86.0408C6.02428 87.0438 6.31508 88.0531 6.62443 89.0411L6.12419 89.1967ZM139.041 84.2874L138.53 84.169C138.765 83.1622 138.979 82.134 139.168 81.1134L139.683 81.2078C139.493 82.2365 139.277 83.2724 139.041 84.2874V84.2874ZM4.52371 83.1135C4.30519 82.0932 4.10741 81.0537 3.93597 80.0234L4.45284 79.9377C4.62312 80.9603 4.81937 81.9919 5.03623 83.0043L4.52371 83.1135ZM140.183 78.1027L139.663 78.0318C139.804 77.0086 139.923 75.9654 140.017 74.9308L140.539 74.9777C140.444 76.0205 140.324 77.0717 140.183 78.1027V78.1027ZM3.491 76.9099C3.36742 75.8758 3.26596 74.8226 3.18933 73.7796L3.71208 73.7413C3.78795 74.7767 3.88876 75.8217 4.01145 76.8482L3.491 76.9099ZM140.753 71.8402L140.229 71.8167C140.276 70.7816 140.299 69.7317 140.299 68.6963H140.823C140.823 69.7396 140.8 70.7974 140.753 71.8402ZM3.03056 70.6383C3.01265 69.9978 3.00357 69.3442 3.00343 68.6963C3.00343 68.2943 3.00689 67.8931 3.0138 67.4926L3.53783 67.5018C3.53092 67.8992 3.52746 68.2974 3.52746 68.6963C3.52759 69.3394 3.53668 69.9881 3.55433 70.624L3.03056 70.6383ZM3.66218 64.3831L3.13918 64.3504C3.20455 63.3066 3.29488 62.2524 3.40733 61.2169L3.92829 61.2731C3.8166 62.3008 3.72717 63.347 3.66217 64.3831H3.66218ZM139.961 61.196C139.856 60.1661 139.712 59.6639 139.56 58.6385L140.079 58.5622C140.232 59.5954 140.363 60.3841 140.469 61.4218L139.961 61.196ZM4.33627 58.1787L3.81838 58.0989C3.97894 57.0654 4.16548 56.0238 4.37286 55.0026L4.88641 55.1061C4.68068 56.1196 4.49556 57.1533 4.33627 58.1787ZM139.032 55.5626C138.832 54.5436 138.606 53.5178 138.361 52.5138L138.87 52.3903C139.117 53.4019 139.344 54.4357 139.546 55.4624L139.032 55.5626ZM5.57752 52.0621L5.06923 51.9351C5.32369 50.9233 5.60554 49.9031 5.90696 48.9027L6.40872 49.0529C6.10974 50.0457 5.83007 51.0581 5.57752 52.0621ZM137.551 49.4988C137.258 48.5041 136.939 47.5036 136.601 46.5246L137.097 46.3547C137.437 47.3412 137.759 48.3497 138.054 49.3519L137.551 49.4988ZM7.38143 46.077L6.88709 45.9038C7.23533 44.9163 7.61134 43.924 8.00461 42.9546L8.49052 43.1505C8.10018 44.1124 7.72699 45.0972 7.38143 46.077ZM135.516 43.597C135.133 42.6356 134.724 41.6708 134.299 40.7291L134.777 40.5146C135.205 41.4635 135.618 42.4358 136.003 43.4044L135.516 43.597ZM9.73343 40.2791L9.25725 40.061C9.69492 39.1108 10.1607 38.1579 10.6418 37.2289L11.1075 37.4684C10.63 38.3904 10.1678 39.336 9.73343 40.2791ZM132.951 37.9189C132.482 36.9967 131.985 36.0725 131.474 35.1725L131.93 34.9151C132.445 35.8222 132.946 36.7533 133.418 37.6827L132.951 37.9189ZM12.6096 34.7245L12.1554 34.4639C12.6782 33.559 13.2294 32.6532 13.794 31.7719L14.2357 32.053C13.6754 32.9276 13.1282 33.8265 12.6096 34.7245ZM129.872 32.4951C129.319 31.6164 128.739 30.741 128.149 29.8931L128.579 29.5954C129.174 30.4498 129.758 31.3318 130.316 32.2174L129.872 32.4951ZM15.9825 29.459L15.5542 29.1581C16.1583 28.3039 16.7899 27.4526 17.4319 26.6276L17.8459 26.9478C17.2089 27.7666 16.5819 28.6114 15.9825 29.459ZM126.308 27.3715C125.676 26.5469 125.019 25.7272 124.353 24.9352L124.754 24.5996C125.425 25.3978 126.088 26.2236 126.724 27.0544L126.308 27.3715ZM19.8219 24.5246L19.423 24.1859C20.1009 23.3921 20.8075 22.602 21.5231 21.8375L21.9061 22.1938C21.1961 22.9526 20.4949 23.7368 19.8219 24.5246ZM122.288 22.5896C121.584 21.8258 120.854 21.0687 120.118 20.3397L120.488 19.969C121.229 20.7038 121.965 21.4665 122.674 22.2361L122.288 22.5896ZM24.094 19.9609L23.7276 19.5874C24.4769 18.8566 25.2523 18.1341 26.0321 17.44L26.3811 17.8298C25.6072 18.5185 24.8377 19.2355 24.094 19.9609ZM117.848 18.19C117.076 17.4924 116.28 16.8045 115.48 16.1452L115.815 15.7427C116.62 16.407 117.422 17.1001 118.2 17.803L117.848 18.19ZM28.7627 15.8047L28.4318 15.3996C29.2423 14.7417 30.0799 14.0927 30.9215 13.4708L31.2337 13.8904C30.3983 14.5077 29.567 15.1517 28.7627 15.8047ZM33.7887 12.0911L33.4962 11.6577C34.3636 11.0759 35.2566 10.5062 36.1505 9.96398L36.4228 10.4104C35.5358 10.9483 34.6496 11.5139 33.7887 12.0911ZM39.1306 8.85183L38.879 8.39345C39.7967 7.89285 40.7377 7.40718 41.6757 6.94969L41.906 7.41904C40.9752 7.87297 40.0413 8.35493 39.1306 8.85183ZM102.373 7.64147C101.441 7.17836 100.486 6.73096 99.5343 6.31174L99.7461 5.83397C100.705 6.25638 101.667 6.70724 102.607 7.17391L102.373 7.64147ZM44.7434 6.11494L44.5351 5.63563C45.4941 5.22125 46.4752 4.82384 47.4508 4.45436L47.6369 4.94283C46.6686 5.30939 45.6951 5.70375 44.7434 6.11494ZM96.636 5.11336C95.6657 4.73827 94.6726 4.38038 93.6842 4.0498L93.851 3.55443C94.8469 3.88769 95.8476 4.24825 96.8253 4.62641L96.636 5.11336ZM50.5886 3.90224L50.4254 3.40586C51.4212 3.08037 52.4373 2.77389 53.4452 2.49522L53.5853 2.99849C52.5851 3.27513 51.5768 3.57918 50.5886 3.90224ZM90.6936 3.12552C89.6941 2.84149 88.6747 2.57697 87.6638 2.33936L87.784 1.83099C88.8029 2.07038 89.83 2.33694 90.8374 2.62301L90.6936 3.12552ZM56.6207 2.23338L56.504 1.72411C57.525 1.4916 58.565 1.27976 59.595 1.09457L59.6881 1.60856C58.6658 1.79247 57.6338 2.00266 56.6207 2.23338ZM84.6007 1.6935C83.5803 1.50257 82.5409 1.33268 81.5113 1.18857L81.5839 0.671262C82.6215 0.81653 83.669 0.987688 84.6974 1.18002L84.6007 1.6935ZM62.7813 1.12505L62.7119 0.607241C63.7492 0.469242 64.8042 0.353179 65.8474 0.262628L65.893 0.782991C64.8577 0.87303 63.8109 0.988072 62.7813 1.12505ZM78.4016 0.825335C77.3694 0.728405 76.3188 0.653667 75.2787 0.603542L75.3043 0.0816589C76.3521 0.132293 77.4106 0.207543 78.4508 0.305249L78.4016 0.825335ZM69.0177 0.582625L68.9957 0.0607417C69.9588 0.0206941 70.9403 0.000286496 71.9134 3.05176e-05L72.1506 0.000414633L72.1491 0.52282L71.9134 0.522436C70.9477 0.522676 69.9734 0.542956 69.0177 0.58262V0.582625Z" fill="#3F3D56"/>
<path d="M156.224 24.6069V193.918C156.222 195.935 155.417 197.869 153.986 199.295C152.555 200.72 150.615 201.521 148.592 201.522H79.6424C78.6401 201.524 77.6472 201.328 76.7207 200.947C75.7943 200.566 74.9524 200.006 74.2434 199.299C73.5344 198.593 72.9721 197.754 72.5889 196.831C72.2056 195.907 72.0089 194.918 72.0099 193.918V24.6069C72.0098 23.6077 72.2072 22.6182 72.5907 21.695C72.9743 20.7718 73.5365 19.933 74.2452 19.2264C74.954 18.5199 75.7954 17.9594 76.7215 17.5771C77.6476 17.1947 78.6401 16.998 79.6424 16.998H89.9606V18.3171C89.9604 19.9786 90.6222 21.5722 91.8005 22.7473C92.9788 23.9225 94.577 24.5829 96.2437 24.5834H131.312C132.653 24.5862 133.96 24.1575 135.038 23.3609C135.256 23.203 135.462 23.0302 135.656 22.8438C136.27 22.2595 136.758 21.5569 137.092 20.7788C137.425 20.0007 137.596 19.1632 137.595 18.3171V16.998H148.592C149.594 16.9977 150.587 17.1943 151.513 17.5766C152.439 17.9589 153.281 18.5193 153.989 19.2259C154.698 19.9325 155.26 20.7715 155.644 21.6947C156.027 22.618 156.225 23.6076 156.224 24.6069Z" fill="#3F3D56"/>
<path d="M146.144 78.0333H82.0904V126.617H146.144V78.0333Z" fill="#F9A826"/>
<path d="M48.3605 69.8474C54.0635 69.9693 58.6001 74.0893 58.6001 74.0893C58.6001 74.0893 53.8904 78.0116 48.1874 77.8897C42.4845 77.7677 37.9478 73.6477 37.9478 73.6477C37.9478 73.6477 42.6575 69.7254 48.3605 69.8474Z" fill="#F9A826"/>
<path d="M19.6889 50.4405C24.8413 52.8807 30.7494 51.226 30.7494 51.226C30.7494 51.226 28.3039 45.6149 23.1515 43.1747C17.9991 40.7345 12.091 42.3892 12.091 42.3892C12.091 42.3892 14.5365 48.0003 19.6889 50.4405Z" fill="#F9A826"/>
<path d="M20.2126 48.0156C25.8932 47.4981 30.8655 51.0839 30.8655 51.0839C30.8655 51.0839 26.6276 55.5088 20.947 56.0264C15.2664 56.5439 10.2942 52.9581 10.2942 52.9581C10.2942 52.9581 14.532 48.5332 20.2126 48.0156Z" fill="#3F3D56"/>
<path d="M41.036 48.996C40.4915 54.6567 44.0663 59.6294 44.0663 59.6294C44.0663 59.6294 48.5238 55.4245 49.0683 49.7639C49.6128 44.1032 46.038 39.1305 46.038 39.1305C46.038 39.1305 41.5805 43.3354 41.036 48.996Z" fill="#3F3D56"/>
<path d="M67.7888 83.7125C64.8093 88.5618 65.8344 94.5937 65.8344 94.5937C65.8344 94.5937 71.6902 92.7634 74.6698 87.9142C77.6493 83.065 76.6242 77.0331 76.6242 77.0331C76.6242 77.0331 70.7683 78.8633 67.7888 83.7125Z" fill="#3F3D56"/>
<path d="M59.1449 136.436L59.5791 136.143C58.0486 133.929 57.2129 131.311 57.1783 128.623C57.1904 124.69 59.1283 121.052 61.0024 117.534C61.3503 116.881 61.697 116.23 62.0305 115.579C63.4305 112.927 64.5463 110.135 65.3592 107.249C68.2662 96.4795 65.4041 83.7737 57.7033 73.2606C51.5943 64.9208 42.4876 57.628 29.8632 50.9655L29.618 51.4272C42.1706 58.0517 51.219 65.2943 57.2801 73.5688C64.8883 83.9552 67.7193 96.4952 64.8531 107.113C64.0496 109.964 62.9472 112.722 61.5641 115.342C61.2316 115.99 60.8861 116.638 60.5396 117.289C58.6356 120.863 56.6668 124.559 56.6542 128.621C56.6889 131.415 57.5558 134.135 59.1449 136.436Z" fill="#3F3D56"/>
<path d="M4.9784 51.6519C7.72783 51.6519 9.95668 49.43 9.95668 46.6891C9.95668 43.9482 7.72783 41.7262 4.9784 41.7262C2.22896 41.7262 0.000106812 43.9482 0.000106812 46.6891C0.000106812 49.43 2.22896 51.6519 4.9784 51.6519Z" fill="#3F3D56"/>
<path d="M75.0574 127.248L43.8071 124.652V78.96L75.0574 77.4025V127.248Z" fill="#F9A826"/>
<path d="M153.177 127.248L184.427 124.652V78.96L153.177 77.4025V127.248Z" fill="#F9A826"/>
<path d="M124.98 96.2688C124.05 95.4681 122.904 94.9587 121.685 94.8042C120.466 94.6498 119.229 94.8572 118.128 95.4005C117.172 95.8616 116.143 96.155 115.087 96.2679C115.06 93.9873 115.48 91.7234 116.323 89.603L116.461 89.2474H114.625L114.572 89.4396C114.367 90.1894 114.206 90.9504 114.089 91.7186C113.99 91.3856 113.861 91.062 113.705 90.7515C112.416 88.2052 109.44 87.1637 109.313 87.1207L109.06 87.034L108.979 87.2889C108.939 87.4157 108.009 90.4209 109.297 92.9674C110.22 94.7906 112.007 95.842 112.995 96.3081C111.745 96.2279 110.523 95.9021 109.4 95.3496C108.7 94.9899 107.912 94.8341 107.127 94.9002C106.342 94.9662 105.592 95.2514 104.962 95.723C101.533 98.3209 99.566 102.129 99.566 106.171C99.566 111.481 103.015 116.343 108.354 118.559C108.835 118.758 109.351 118.86 109.873 118.86C110.597 118.86 111.307 118.666 111.93 118.297C112.757 117.818 113.697 117.564 114.655 117.562C115.612 117.56 116.553 117.81 117.382 118.286C117.918 118.602 118.521 118.789 119.142 118.832C119.763 118.876 120.386 118.775 120.961 118.538C126.268 116.313 129.698 111.459 129.698 106.171C129.698 102.386 128.022 98.8693 124.98 96.2688ZM115.025 89.7698H115.7C114.941 91.7951 114.555 93.9399 114.559 96.1017H114.438C114.276 93.9732 114.474 91.8326 115.025 89.7698ZM109.765 92.7322C108.787 90.7991 109.216 88.4949 109.406 87.7174C110.145 88.0269 112.257 89.05 113.237 90.9867C114.215 92.9196 113.786 95.2233 113.596 96.0012C112.856 95.6908 110.743 94.665 109.765 92.7322ZM120.758 118.056C120.258 118.262 119.717 118.35 119.177 118.311C118.637 118.273 118.114 118.11 117.648 117.836C116.737 117.312 115.704 117.037 114.653 117.04C113.602 117.042 112.57 117.321 111.662 117.848C111.198 118.124 110.675 118.288 110.136 118.328C109.596 118.367 109.055 118.282 108.555 118.077C103.413 115.943 100.09 111.269 100.09 106.171C100.09 102.294 101.981 98.6372 105.279 96.1391C105.912 95.6627 106.684 95.4058 107.476 95.4077C108.062 95.4074 108.639 95.5466 109.16 95.8138C110.595 96.4967 112.164 96.8556 113.754 96.865C115.345 96.8744 116.918 96.5341 118.361 95.8683C119.37 95.3707 120.504 95.1809 121.62 95.3227C122.737 95.4645 123.787 95.9316 124.638 96.6654C127.563 99.1651 129.174 102.541 129.174 106.171C129.174 111.248 125.87 115.913 120.758 118.056Z" fill="white"/>
<path d="M59.3466 91.3322V90.719H59.5911V88.8085C59.5921 88.6669 59.5539 88.5278 59.4809 88.4063C59.4078 88.2848 59.3027 88.1857 59.177 88.1197C58.0955 87.5572 56.9334 87.5579 55.7227 88.1224C55.5891 88.1856 55.4762 88.2854 55.3972 88.4102C55.3183 88.5349 55.2765 88.6794 55.2767 88.8269V90.719H55.5212V91.2741C54.6213 91.5256 53.829 92.0643 53.2658 92.8078C52.7026 93.5513 52.3996 94.4585 52.4032 95.3901V99.524L52.8689 99.6788L52.4032 99.9882V101.23L52.8689 101.385L52.4032 101.695V102.937L52.8689 103.092L52.4032 103.401V112.863C52.4041 113.601 52.6985 114.308 53.222 114.83C53.7454 115.352 54.4552 115.646 55.1955 115.646H59.3118C60.0505 115.646 60.7586 115.353 61.2809 114.832C61.8032 114.311 62.097 113.606 62.0978 112.869V103.401L61.6321 103.092L62.0978 102.937V101.695L61.6321 101.385L62.0978 101.23V99.9882L61.6321 99.6788L62.0978 99.524V95.1766C62.0947 94.3308 61.8284 93.5068 61.3356 92.8182C60.8429 92.1296 60.1479 91.6104 59.3466 91.3322ZM55.9445 88.5956C57.0147 88.0973 57.9929 88.0931 58.9344 88.5829C58.9749 88.6051 59.0087 88.6378 59.032 88.6775C59.0554 88.7172 59.0675 88.7625 59.0671 88.8086V89.8309H55.8007V88.8269C55.8003 88.7788 55.8136 88.7314 55.839 88.6905C55.8645 88.6495 55.9011 88.6166 55.9445 88.5956ZM61.5738 99.1475L60.45 99.5209L61.5738 100.268V100.854L60.45 101.227L61.5738 101.974V102.561L60.45 102.934L61.5738 103.681V112.869C61.5731 113.467 61.3345 114.04 60.9105 114.463C60.4865 114.886 59.9115 115.123 59.3118 115.124H55.1955C54.5941 115.123 54.0176 114.885 53.5923 114.461C53.1671 114.037 52.9279 113.462 52.9273 112.863V103.681L54.0511 102.934L52.9273 102.561V101.974L54.0511 101.227L52.9273 100.854V100.268L54.0511 99.5209L52.9273 99.1475V95.3901C52.924 94.5408 53.2108 93.7157 53.7407 93.0507C54.2705 92.3856 55.0118 91.9202 55.8423 91.7311L56.0452 91.6843V90.719H58.8226V91.7194L59.0116 91.7741C59.7492 91.9907 60.397 92.4388 60.8586 93.0519C61.3202 93.6649 61.5711 94.4101 61.5738 95.1766V99.1475Z" fill="white"/>
<path d="M182.51 98.4859L181.191 98.2231L181.502 97.6037L180.897 97.4829L181.001 96.8557L180.341 96.7458V96.1508L179.805 95.9981L180.313 95.3641H179.43L179.615 94.905L178.962 94.7966L179.184 94.0224H178.477V93.3H178.215C177.39 93.3 176.929 94.2775 176.778 94.6689C172.221 95.4612 158.989 104.598 157.479 105.648C156.852 105.445 155.921 105.921 155.727 106.027L155.419 106.194L155.863 106.636L155.731 107.031L156.545 107.336L156.367 107.78L156.879 108.206L156.419 108.551L157.112 108.966L156.99 109.572L157.765 109.682V110.289L158.214 110.379L157.99 111.162H158.489V111.781H158.976L159.197 112.441L159.424 112.395C159.951 112.29 160.402 111.563 160.579 111.241C164.968 110.46 178.517 100.956 179.836 100.026C181.376 100.21 181.942 99.7995 182.002 99.7513L182.253 99.5514L181.655 99.0546L182.51 98.4859ZM179.803 99.4949L179.701 99.4812L179.616 99.5408C179.467 99.6468 164.607 110.142 160.371 110.745L160.235 110.764L160.173 110.887C160.011 111.217 159.792 111.516 159.525 111.77L159.354 111.259H159.013V110.639H158.684L158.874 109.978L158.289 109.861V109.229L157.613 109.133L157.699 108.707L157.356 108.502L157.724 108.228L156.995 107.622L157.23 107.034L156.388 106.719L156.463 106.495L156.3 106.333C156.694 106.17 157.17 106.048 157.374 106.17L157.52 106.258L157.659 106.16C157.808 106.056 172.567 95.7653 177.008 95.1617L177.174 95.1391L177.223 94.9797C177.3 94.7328 177.571 94.109 177.953 93.8955V94.5448H178.489L178.297 95.2156L178.886 95.3136L178.656 95.8865H179.223L178.903 96.2848L179.817 96.5449V97.1883L180.398 97.285L180.296 97.8962L180.726 97.9818L180.416 98.6011L181.167 98.751L180.78 99.008L181.336 99.4702C180.831 99.5725 180.311 99.5809 179.803 99.4949Z" fill="white"/>
<path d="M114.117 148.819C118.314 148.819 121.716 145.428 121.716 141.244C121.716 137.061 118.314 133.669 114.117 133.669C109.921 133.669 106.519 137.061 106.519 141.244C106.519 145.428 109.921 148.819 114.117 148.819Z" fill="#F9A826"/>
<path d="M118.901 140.496H114.867V136.475H113.367V140.496H109.333V141.992H113.367V146.014H114.867V141.992H118.901V140.496Z" fill="white"/>
<path d="M138.082 141.506L134.152 139.677V140.722H124.981V142.289H134.152V143.334L138.082 141.506Z" fill="white"/>
<path d="M90.1521 141.506L94.0823 139.677V140.722H103.253V142.289H94.0823V143.334L90.1521 141.506Z" fill="white"/>
<path d="M210.146 201.582H18.0886V202.105H210.146V201.582Z" fill="#3F3D56"/>
<path d="M139.27 41.7261H88.9637V42.2485H139.27V41.7261Z" fill="white"/>
<path d="M139.392 184.343H89.0854V184.865H139.392V184.343Z" fill="white"/>
<path d="M220.224 132.755L218.914 137.718C218.914 137.718 214.198 148.166 218.914 148.689C223.63 149.211 223.892 135.106 223.892 135.106L220.224 132.755Z" fill="#A0616A"/>
<path d="M228.346 96.9705L218.914 134.061C218.914 134.061 222.582 135.106 224.416 136.412L228.346 96.9705Z" fill="#D0CDE1"/>
<path d="M257.954 125.18L260.574 165.667C260.574 165.667 266.863 181.6 266.601 196.75C266.601 196.75 264.242 202.758 266.077 203.802C267.911 204.847 268.959 205.631 267.911 206.414C266.863 207.198 266.077 209.026 266.863 209.549C267.649 210.071 267.911 210.855 267.649 210.855H259.788C259.788 210.855 261.36 206.937 259.002 205.892C256.644 204.847 257.954 202.235 257.954 202.235L240.399 151.039L226.512 198.056C226.512 198.056 228.87 199.623 227.036 200.407C225.202 201.19 224.416 199.623 225.202 201.19C225.988 202.758 224.94 203.541 224.94 203.802C224.94 204.064 217.08 203.019 217.08 203.019C217.08 203.019 221.01 199.623 219.176 198.84C217.342 198.056 216.556 197.272 217.08 196.75C217.604 196.228 219.7 191.265 219.7 191.265C219.7 191.265 220.748 172.458 221.01 171.674C221.272 170.891 221.01 167.234 221.01 165.406C221.01 163.577 220.748 156.264 221.534 154.435C222.32 152.607 223.106 130.143 227.298 127.531C231.491 124.919 257.954 125.18 257.954 125.18Z" fill="#2F2E41"/>
<path d="M224.678 202.496C224.678 202.496 229.919 213.206 226.25 214.512C222.582 215.818 217.866 214.773 216.818 216.34C215.77 217.907 204.241 219.736 203.979 215.818C203.717 211.9 216.556 204.586 216.556 204.586L218.228 201.901L224.678 202.496Z" fill="#2F2E41"/>
<path d="M267.125 210.333C267.125 210.333 272.365 221.042 268.697 222.348C265.029 223.654 260.312 222.609 259.264 224.176C258.216 225.743 246.687 227.572 246.425 223.654C246.163 219.736 259.002 212.422 259.002 212.422L260.675 209.737L267.125 210.333Z" fill="#2F2E41"/>
<path d="M242.888 75.9437C247.664 75.9437 251.535 72.0845 251.535 67.324C251.535 62.5635 247.664 58.7043 242.888 58.7043C238.113 58.7043 234.242 62.5635 234.242 67.324C234.242 72.0845 238.113 75.9437 242.888 75.9437Z" fill="#A0616A"/>
<path d="M248.784 71.895L247.736 79.4699L239.875 85.4776L237.779 82.6043V72.6786L248.784 71.895Z" fill="#A0616A"/>
<path d="M236.469 81.5595C236.469 81.5595 244.591 82.3432 248.784 79.4699L257.168 128.837C257.168 128.837 227.56 131.188 226.25 129.621V114.21L231.491 89.1344L236.469 81.5595Z" fill="#3F3D56"/>
<path d="M248.062 77.1096L250.88 79.4699C250.88 79.4699 262.408 81.2983 261.622 84.4328L258.478 121.524L259.526 134.061C259.526 134.061 250.618 131.71 243.805 134.061C236.993 136.412 242.405 83.5438 242.405 83.5438C242.405 83.5438 248.651 77.8838 248.062 77.1096Z" fill="#D0CDE1"/>
<path d="M237.779 79.9687C237.779 79.9687 229.394 86 228.346 89.918C227.298 93.8361 223.892 135.106 223.892 135.106C223.892 135.106 225.464 134.323 226.25 135.629C227.036 136.935 239.089 82.0346 237.779 79.9687Z" fill="#D0CDE1"/>
<path d="M260.836 134.584L258.958 140.694C258.958 140.694 258.478 152.084 252.19 150.517C245.901 148.95 254.024 135.629 254.024 135.629L255.858 132.755L260.836 134.584Z" fill="#A0616A"/>
<path d="M234.246 66.9485C234.246 66.9485 233.31 65.5487 233.67 64.0414C233.885 63.1856 233.97 62.3024 233.922 61.4214C233.922 61.4214 234.678 58.9809 235.434 57.6171C236.19 56.2533 235.83 55.6791 238.206 55.2484C240.582 54.8177 239.61 51.7312 245.874 55.0689C246.086 55.3631 246.38 55.5883 246.719 55.716C247.059 55.8438 247.429 55.8684 247.782 55.7867C249.078 55.5355 249.546 57.33 249.546 57.33C249.546 57.33 250.411 56.8275 250.735 57.5453C251.059 58.2631 253.369 57.1145 253.369 61.9596C253.369 66.8048 250.74 71.1327 250.74 71.1327C250.74 71.1327 250.933 62.9826 246.648 62.1572C242.364 61.3317 237.756 58.9271 236.64 62.0136C236.038 63.7459 235.234 65.4021 234.246 66.9485Z" fill="#2F2E41"/>
<path d="M250.834 68.8862C251.3 68.8862 251.679 68.3833 251.679 67.763C251.679 67.1427 251.3 66.6398 250.834 66.6398C250.367 66.6398 249.989 67.1427 249.989 67.763C249.989 68.3833 250.367 68.8862 250.834 68.8862Z" fill="#A0616A"/>
<path d="M259.526 82.6044C259.526 82.6044 263.718 81.5595 265.029 88.612C266.339 95.6645 267.911 115.777 267.911 115.777L261.622 136.935C261.622 136.935 255.334 133.539 254.024 134.061L258.972 115.693L254.81 96.9705C254.81 96.9705 258.478 82.6044 259.526 82.6044Z" fill="#D0CDE1"/>
<path opacity="0.15" d="M253.431 97.3278L258.933 115.612L253.431 134.157L256.575 115.612L253.431 97.3278Z" fill="black"/>
</svg>
