<svg width="31" height="54" viewBox="0 0 31 54" fill="none" xmlns="http://www.w3.org/2000/svg">
<path d="M15.6305 48.2964C15.6314 47.9116 15.7156 47.5695 15.8828 47.2701C16.0501 46.9671 16.282 46.7327 16.5785 46.5669C16.8787 46.3975 17.2175 46.3132 17.595 46.3142C18.0575 46.3153 18.4532 46.4385 18.7819 46.6835C19.1107 46.9286 19.33 47.2622 19.44 47.6844L18.3964 47.6817C18.3191 47.5187 18.2084 47.3945 18.0643 47.309C17.9239 47.2235 17.763 47.1805 17.5817 47.1801C17.2893 47.1793 17.0522 47.2805 16.8704 47.4836C16.6885 47.6867 16.5972 47.9584 16.5963 48.2989C16.5955 48.6393 16.6854 48.9116 16.8663 49.1156C17.0471 49.3196 17.2836 49.4219 17.576 49.4227C17.7573 49.4231 17.9184 49.381 18.0593 49.2962C18.2038 49.2115 18.3151 49.0878 18.3932 48.9251L19.4368 48.9278C19.3247 49.3494 19.1037 49.6819 18.7737 49.9253C18.4438 50.165 18.0475 50.2843 17.5849 50.2831C17.2075 50.2821 16.8691 50.198 16.5697 50.0307C16.2741 49.8597 16.0434 49.6242 15.8777 49.324C15.7119 49.0238 15.6295 48.6813 15.6305 48.2964Z" fill="#F5F5F5"/>
<path d="M13.3589 46.1569L13.353 48.4883C13.3524 48.7214 13.4093 48.9011 13.5237 49.0272C13.6381 49.1533 13.8063 49.2166 14.0284 49.2172C14.2504 49.2178 14.4208 49.1553 14.5395 49.0298C14.6583 48.9042 14.7179 48.7249 14.7185 48.4918L14.7244 46.1604L15.6736 46.1628L15.6677 48.4886C15.6669 48.8365 15.5921 49.1305 15.4435 49.3706C15.2948 49.6108 15.0946 49.7916 14.8426 49.9131C14.5944 50.0346 14.3166 50.095 14.0095 50.0942C13.7023 50.0934 13.4268 50.0335 13.1829 49.9145C12.9426 49.7917 12.7525 49.6099 12.6125 49.369C12.4725 49.1244 12.4029 48.8282 12.4038 48.4804L12.4097 46.1545L13.3589 46.1569Z" fill="#F5F5F5"/>
<g clip-path="url(#clip0)">
<path d="M30.0381 50.3884C30.5224 50.8293 30.6891 51.9088 30.0636 52.5287C29.4422 53.1549 28.3607 52.9889 27.9219 52.5053C23.8623 48.1461 19.8049 43.7849 15.7453 39.4243L15.2838 38.9318C11.0376 43.4907 6.79273 48.0518 2.54789 52.6128C2.11046 53.0957 1.03099 53.2624 0.409629 52.6362C-0.217246 52.0155 -0.0519168 50.9333 0.431672 50.4945C5.00717 46.2386 9.57922 41.9814 14.154 37.7235C14.154 37.7235 11.94 35.3352 10.9852 34.3101C8.7512 35.9117 5.44047 35.3028 3.45032 32.8456C1.30999 30.2533 -0.536195 25.6172 1.25074 23.7187C3.15135 21.9304 7.78471 23.7807 10.3769 25.9189C12.8335 27.9112 13.4459 31.2171 11.8408 33.4525C12.9912 34.5244 14.1416 35.5935 15.2934 36.6647C15.2907 36.6667 15.2893 36.6681 15.2865 36.6702C15.2865 36.6702 15.3582 36.7267 15.2934 36.6647C16.3695 35.6624 17.4462 34.6607 18.5229 33.6584C17.6136 32.1057 18.2177 29.9282 19.6946 28.6855C21.3886 27.2657 27.6649 21.8773 27.8337 22.0482C28.0018 22.2156 23.5999 26.375 20.6591 29.3247L21.1495 29.8145C24.2887 27.0632 28.7203 22.9368 28.8911 23.1049C29.0592 23.2737 24.7951 27.5688 21.95 30.6171L22.437 31.1027C25.4805 28.2556 29.777 23.9908 29.9437 24.1582C30.1125 24.3276 25.9854 28.7599 23.2341 31.8991L23.7211 32.3854C26.6695 29.4446 30.8268 25.0427 30.997 25.2094C31.1671 25.3789 24.3714 33.3416 24.3618 33.3533C24.3604 33.3519 25.8043 31.6573 24.3563 33.3491C22.9744 34.9659 20.9105 35.455 19.3847 34.5237C18.3941 35.5866 17.4055 36.6495 16.4163 37.7125C16.3295 37.6305 25.4984 46.1636 30.0381 50.3884Z" fill="#F5F5F5"/>
</g>
<g clip-path="url(#clip1)">
<path d="M24.1106 9.18497C24.1106 15.6145 15.8441 21.1254 15.8441 21.1254C15.8441 21.1254 7.57762 15.6145 7.57762 9.18497C7.57762 6.99256 8.44855 4.88995 9.99882 3.33968C11.5491 1.78942 13.6517 0.918488 15.8441 0.918488C18.0365 0.918488 20.1391 1.78942 21.6894 3.33968C23.2397 4.88995 24.1106 6.99256 24.1106 9.18497Z" stroke="#F5F5F5" stroke-width="2" stroke-linecap="round" stroke-linejoin="round"/>
<path d="M15.8441 11.9405C17.3659 11.9405 18.5996 10.7068 18.5996 9.18497C18.5996 7.66315 17.3659 6.42947 15.8441 6.42947C14.3223 6.42947 13.0886 7.66315 13.0886 9.18497C13.0886 10.7068 14.3223 11.9405 15.8441 11.9405Z" stroke="#F5F5F5" stroke-width="2" stroke-linecap="round" stroke-linejoin="round"/>
</g>
<defs>
<clipPath id="clip0">
<rect width="31" height="31" fill="white" transform="translate(0 22.0439)"/>
</clipPath>
<clipPath id="clip1">
<rect width="22.044" height="22.044" fill="white" transform="translate(4.82213)"/>
</clipPath>
</defs>
</svg>
